<?xml version="1.0" standalone="no"?>
<!DOCTYPE svg PUBLIC "-//W3C//DTD SVG 20010904//EN"
 "http://www.w3.org/TR/2001/REC-SVG-20010904/DTD/svg10.dtd">
<svg version="1.0" xmlns="http://www.w3.org/2000/svg"
 width="512.000000pt" height="512.000000pt" viewBox="0 0 512.000000 512.000000"
 preserveAspectRatio="xMidYMid meet">
<metadata>
Created by potrace 1.11, written by Peter Selinger 2001-2013
</metadata>
<g transform="translate(0.000000,512.000000) scale(0.100000,-0.100000)"
fill="#000000" stroke="none">
<path d="M386 5109 c-175 -42 -338 -208 -376 -385 -7 -33 -10 -734 -8 -2194
l3 -2145 28 -66 c53 -126 160 -233 287 -286 l65 -28 2175 0 2175 0 65 28 c127
53 234 160 287 286 l28 66 0 2175 0 2175 -28 66 c-53 126 -160 233 -287 286
l-65 28 -2155 2 c-1278 0 -2171 -3 -2194 -8z m352 -1259 c132 -17 207 -53 361
-176 51 -40 305 -315 795 -859 l721 -800 3 650 c2 358 0 669 -3 692 -6 44 -41
95 -79 115 -11 6 -46 17 -76 24 -48 10 -22 12 210 12 239 0 259 -1 206 -13
-67 -15 -103 -38 -131 -86 -19 -33 -20 -55 -23 -768 -2 -613 0 -737 11 -755 8
-11 58 -73 111 -136 249 -295 430 -405 658 -399 43 1 78 -2 79 -7 1 -18 -100
-36 -211 -37 -127 -2 -190 13 -320 79 -151 75 -197 122 -1003 1014 -385 426
-703 777 -708 778 -5 2 -9 -277 -9 -653 0 -624 1 -658 19 -693 24 -47 84 -82
140 -82 22 0 41 -4 41 -10 0 -6 -92 -10 -255 -10 -163 0 -255 4 -255 10 0 6
19 10 41 10 58 0 114 34 139 85 19 40 20 62 20 761 l0 719 -67 86 c-118 148
-146 179 -233 251 -158 132 -320 180 -477 141 -13 -3 -23 -1 -23 5 0 14 91 43
160 52 30 4 60 8 65 9 6 0 48 -4 93 -9z m3972 -445 c0 -97 -4 -155 -10 -155
-5 0 -10 16 -10 37 0 47 -42 118 -83 140 -28 16 -67 18 -294 21 l-263 3 0
-794 0 -794 23 -34 c34 -50 82 -79 133 -79 24 0 44 -4 44 -10 0 -6 -100 -10
-280 -10 -180 0 -280 4 -280 10 0 6 18 10 40 10 53 0 92 21 127 67 l28 36 3
799 2 798 -277 0 c-372 0 -435 -12 -526 -99 -80 -75 -102 -163 -69 -268 11
-34 17 -64 14 -67 -8 -9 -51 59 -68 106 -45 129 22 272 161 341 102 51 91 50
795 57 553 6 674 10 720 22 30 9 58 16 63 17 4 1 7 -69 7 -154z"/>
</g>
</svg>
